# xmcd
#
# Track frame offsets:
#	150
#	11863
#	25046
#	45037
#	60163
#	97632
#	120006
#	148293
#	164023
#	186900
#	197084
#	220739
#	250498
#	265777
#	283356
#
# Disc length: 4201 seconds
#
# Revision: 1
# Processed by: cddbd v1.5.2PL0 Copyright (c) Steve Scherf et al.
# Submitted via: EZCDAudioConverter 2.1.7.1
#
DISCID=cc10670f
DTITLE=V/A - Music Is Love!
DYEAR=2007
DGENRE=MOJO
TTITLE0=Edgar Broughton Band - Apache Drop Out
TTITLE1=Dream Syndicate - Cinnamon Girl
TTITLE2=Willie Nelson and Family - Move It On Over [Live]
TTITLE3=Gun Club - John Hardy
TTITLE4=Robyn Hitchcock - Like A Rolling Stone
TTITLE5=Radiodread - Airbag
TTITLE6=Balanescu Quartet - Autobahn
TTITLE7=Siouxsie and The Banshees - Strange Fruit
TTITLE8=Minnie Ripperton and José Feliciano - Light My Fire
TTITLE9=Al Green - I Want To Hold Your Hand
TTITLE10=Madeleine Peyroux - River
TTITLE11=Donny Hathaway - To Be Young, Gifted and Black
TTITLE12=Big Star - Femme Fatale
TTITLE13=Penetration - Free Money
TTITLE14=Laibach - Sympathy For The Devil
EXTD=
EXTT0=
EXTT1=
EXTT2=
EXTT3=
EXTT4=
EXTT5=
EXTT6=
EXTT7=
EXTT8=
EXTT9=
EXTT10=
EXTT11=
EXTT12=
EXTT13=
EXTT14=
PLAYORDER=
